Coordinates
version=1
nRows=8
nColumns=63
inDegrees=yes

Units are S.I. units (second, meters, Newtons, ...)
If the header above contains a line with 'inDegrees', this indicates whether rotational values are in degrees (yes) or radians (no).

endheader
time	pelvis_tilt	pelvis_list	pelvis_rotation	pelvis_tx	pelvis_ty	pelvis_tz	hip_flexion_r	hip_adduction_r	hip_rotation_r	knee_angle_r	knee_angle_r_beta	ankle_angle_r	subtalar_angle_r	mtp_angle_r	hip_flexion_l	hip_adduction_l	hip_rotation_l	knee_angle_l	knee_angle_l_beta	ankle_angle_l	subtalar_angle_l	mtp_angle_l	L5_S1_Flex_Ext	L5_S1_Lat_Bending	L5_S1_axial_rotation	L4_L5_Flex_Ext	L4_L5_Lat_Bending	L4_L5_axial_rotation	L3_L4_Flex_Ext	L3_L4_Lat_Bending	L3_L4_axial_rotation	L2_L3_Flex_Ext	L2_L3_Lat_Bending	L2_L3_axial_rotation	L1_L2_Flex_Ext	L1_L2_Lat_Bending	L1_L2_axial_rotation	L1_T12_Flex_Ext	L1_T12_Lat_Bending	L1_T12_axial_rotation	Abs_r3	Abs_r2	Abs_r1	Abs_t1	Abs_t2	neck_flexion	neck_bending	neck_rotation	arm_flex_r	arm_add_r	arm_rot_r	elbow_flex_r	pro_sup_r	wrist_flex_r	wrist_dev_r	arm_flex_l	arm_add_l	arm_rot_l	elbow_flex_l	pro_sup_l	wrist_flex_l	wrist_dev_l
      1.30000000	      1.83688402	     -8.57502511	     17.67009261	     -2.04100125	      0.91800985	      0.33114806	     16.59149826	      3.44150920	    -24.82370143	     24.47428025	      0.42715677	      8.04348910	     -9.29018799	      0.00000000	      5.92832354	     -9.04139613	     15.36228961	     57.98122077	      1.01196321	      1.17137222	    -16.60463334	      0.00000000	      0.01830621	      0.85784493	     -2.39541028	      0.03399647	      1.14093376	     -2.54512342	      0.03007528	      2.08576416	     -2.54512342	      0.02092217	      2.08576416	     -2.09598399	      0.01699915	      1.74931738	     -1.94627085	      0.01046017	      1.32880179	     -1.79655771	      0.13075945	      9.70411340	    -13.32255334	      0.00000000	      0.00000000	      0.00000000	      0.00000000	      0.00000000	      5.46822543	    -15.02930669	    139.43287963	     10.25629285	     63.82629868	      0.00000000	      4.99926109	     -3.41553926	     -9.77365140	     24.09767306	     27.03814932	     62.27882499	      0.00000000	      4.99926109
      1.33333333	      1.54412106	     -7.45562490	     13.96848837	     -2.01314622	      0.92334880	      0.33933162	     13.82270904	      3.99969754	    -22.39882980	     22.61892870	      0.39477478	      9.09637585	     -6.61066221	      0.00000000	      9.95713631	     -7.00900116	     12.03243433	     63.65468561	      1.11098385	     -1.41659500	    -18.38145032	      0.00000000	      0.01602121	      0.76061965	     -1.63689772	      0.02975300	      1.01162413	     -1.73920383	      0.02632125	      1.84937061	     -1.73920383	      0.01831065	      1.84937061	     -1.43228551	      0.01487730	      1.55105559	     -1.32997940	      0.00915452	      1.17819984	     -1.22767329	      0.11443793	      8.60428159	     -9.10393407	      0.00000000	      0.00000000	      0.00000000	      0.00000000	      0.00000000	      6.55235448	    -14.63426458	    139.20527811	      6.92885828	     63.19568769	      0.00000000	      4.99928129	     -4.66594179	    -10.85392601	     24.65447254	     29.99614450	     62.20875068	      0.00000000	      4.99928129
      1.36666667	      1.18427892	     -6.28338074	      9.65407851	     -1.98637410	      0.92836567	      0.34760037	     11.17424984	      4.03943122	    -20.20187227	     20.80740344	      0.36315770	     10.18779400	     -2.79878794	      0.00000000	     14.55927531	     -5.33655207	      8.02473859	     67.92785492	      1.18556472	     -1.52733895	    -18.97469191	      0.00000000	      0.01075197	      0.65539309	     -0.76706134	      0.01996748	      0.87167280	     -0.81500268	      0.01766441	      1.59352275	     -0.81500268	      0.01228843	      1.59352275	     -0.67117868	      0.00998428	      1.33647758	     -0.62323734	      0.00614368	      1.01520389	     -0.57529601	      0.07680025	      7.41393766	     -4.26616508	      0.00000000	      0.00000000	      0.00000000	      0.00000000	      0.00000000	      8.23044553	    -13.83934933	    159.19227432	      2.76417381	     42.99479716	      0.00000000	      4.99967446	     -5.41795786	    -11.53415053	     25.55787255	     31.50483026	     59.43216105	      0.00000000	      4.99967446
      1.40000000	      0.96308519	     -5.24767377	      5.65851026	     -1.95993413	      0.93311046	      0.35559132	      8.11908233	      4.15640484	    -17.45614212	     18.05151912	      0.31505844	     10.44058395	     -0.31221143	      0.00000000	     19.42948361	     -4.32495415	      4.31696281	     70.23163811	      1.22577332	     -0.01967384	    -19.23553211	      0.00000000	      0.00326613	      0.55920985	      0.01305737	      0.00606552	      0.74374910	      0.01387345	      0.00536592	      1.35966283	      0.01387345	      0.00373286	      1.35966283	      0.01142519	      0.00303293	      1.14034073	      0.01060911	      0.00186626	      0.86621606	      0.00979302	      0.02332962	      6.32589369	      0.07262115	      0.00000000	      0.00000000	      0.00000000	      0.00000000	      0.00000000	     10.60672562	    -14.01406430	    159.39848543	      1.59770717	     42.68218669	      0.00000000	      4.99968113	     -6.13234787	    -11.76336428	     24.94379094	     32.18410343	     59.24802503	      0.00000000	      4.99968113
      1.43333333	      0.73067626	     -4.23564534	      1.21651945	     -1.93354697	      0.93699740	      0.36409420	      5.27232378	      4.00438263	    -13.98234278	     15.49636468	      0.27046259	     10.53495298	      1.73928497	      0.00000000	     23.92262740	     -4.32229273	     -0.07111998	     69.83468654	      1.21884521	      2.74403420	    -19.24091130	      0.00000000	      0.00071495	      0.45462779	      0.86273404	      0.00132773	      0.60465497	      0.91665492	      0.00117459	      1.10538202	      0.91665492	      0.00081712	      1.10538202	      0.75489229	      0.00066390	      0.92707700	      0.70097141	      0.00040852	      0.70421845	      0.64705053	      0.00510681	      5.14284053	      4.79826792	      0.00000000	      0.00000000	      0.00000000	      0.00000000	      0.00000000	     13.26123235	    -14.10633554	    160.18214349	      1.03874418	     41.82821021	      0.00000000	      4.99969140	     -6.67883437	    -11.60037776	     23.22850521	     31.95084106	     58.86618159	      0.00000000	      4.99969140
      1.46666667	      0.55354025	     -3.29333675	     -2.74121594	     -1.90661640	      0.93961438	      0.37202200	      2.05101092	      4.00562958	     -7.71049307	     12.11512106	      0.21144875	      9.68524065	     -0.66772060	      0.00000000	     27.69483209	     -4.99087224	     -4.11147422	     66.61919426	      1.16272428	      5.41636486	    -19.18889887	      0.00000000	     -0.00283782	      0.34171547	      1.60701631	     -0.00527012	      0.45448157	      1.70745483	     -0.00466226	      0.83084699	      1.70745483	     -0.00324335	      0.83084699	      1.40613927	     -0.00263520	      0.69682618	      1.30570075	     -0.00162153	      0.52931726	      1.20526223	     -0.02027028	      3.86555371	      8.93774259	      0.00000000	      0.00000000	      0.00000000	      0.00000000	      0.00000000	     15.57236464	    -14.67557880	    159.11164636	      0.88210426	     11.49552768	      0.00000000	      4.99996119	     -7.45676384	    -11.60621860	     20.82979104	     32.32808307	     56.24445901	      0.00000000	      4.99996119
      1.50000000	      0.39229494	     -2.38086692	     -6.05511625	     -1.87929546	      0.94040594	      0.37905576	     -1.22607722	      3.37089933	     -4.31969750	      8.82468475	      0.15401980	      9.77249163	      0.53234270	      0.00000000	     30.52683541	     -5.95106092	     -7.66919796	     60.76732058	      1.06058982	      7.29001316	    -19.04967942	      0.00000000	     -0.00444256	      0.22832423	      2.23120397	     -0.00825027	      0.30367123	      2.37065422	     -0.00729868	      0.55514754	      2.37065422	     -0.00507740	      0.55514754	      1.95230348	     -0.00412536	      0.46559878	      1.81285323	     -0.00253848	      0.35367424	      1.67340298	     -0.03173274	      2.58284941	     12.40928714	      0.00000000	      0.00000000	      0.00000000	      0.00000000	      0.00000000	     18.12264861	    -14.44589861	    158.79594204	      0.66563651	     11.25915441	      0.00000000	      4.99996277	     -7.86389004	    -12.47452345	     21.37506026	     33.13071228	     56.26104803	      0.00000000	      4.99996277
      1.53333333	      0.18853543	     -1.37476698	     -8.90332731	     -1.85168291	      0.93910345	      0.38567396	     -4.15983966	      2.65602322	      3.12273281	      6.11398833	      0.10670923	      9.18731442	     -4.69523757	      0.00000000	     32.27892791	     -6.87202315	    -10.97364001	     52.55044165	      0.91717823	      7.73554239	    -18.64876009	      0.00000000	     -0.00748137	      0.09611005	      2.76324533	     -0.01389366	      0.12782637	      2.93594817	     -0.01229115	      0.23368199	      2.93594817	     -0.00855046	      0.23368199	      2.41783967	     -0.00694720	      0.19598762	      2.24513683	     -0.00427486	      0.14887447	      2.07243400	     -0.05343869	      1.08721616	     15.36834157	      0.00000000	      0.00000000	      0.00000000	      0.00000000	      0.00000000	     20.40828124	    -14.04743546	    156.10188503	      0.55952485	      7.27819043	      0.00000000	      4.99997309	     -7.83584715	    -14.07951438	     24.60654145	     33.86214744	     56.20881006	      0.00000000	      4.99997309
